<svg xmlns="http://www.w3.org/2000/svg" version="1.1" xmlns:xlink="http://www.w3.org/1999/xlink" width="200" height="200"><svg xmlns="http://www.w3.org/2000/svg" version="1.1" xmlns:xlink="http://www.w3.org/1999/xlink" viewBox="0 0 200 200"><rect width="200" height="200" fill="url('#gradient')"></rect><defs><linearGradient id="SvgjsLinearGradient1001" gradientTransform="rotate(0 0.5 0.5)"><stop offset="0%" stop-color="#0c2451"></stop><stop offset="100%" stop-color="#0c2451"></stop></linearGradient></defs><g><g fill="#ffffff" transform="matrix(3.433911077618689,0,0,3.433911077618689,9.791624497235404,124.4023120923247)" stroke="#546990" stroke-width="0.75"><path d="M12.24-14.22L12.24-11.57L7.97-11.57L7.97 0L4.54 0L4.54-11.57L0.35-11.57L0.35-14.22L12.24-14.22ZM25.45-7.47L25.45-6.82Q25.45-4.74 24.68-3.13Q23.91-1.53 22.49-0.67Q21.06 0.20 19.25 0.20Q17.43 0.20 16.03-0.64Q14.62-1.47 13.83-3.03Q13.05-4.58 13.01-6.59L13.01-6.59L13.01-7.39Q13.01-9.48 13.77-11.08Q14.54-12.68 15.97-13.54Q17.40-14.41 19.23-14.41L19.23-14.41Q21.04-14.41 22.45-13.55Q23.87-12.70 24.65-11.11Q25.44-9.52 25.45-7.47L25.45-7.47ZM21.96-6.76L21.96-7.41Q21.96-9.53 21.25-10.63Q20.55-11.73 19.23-11.73L19.23-11.73Q16.65-11.73 16.50-7.86L16.50-7.86L16.49-6.82Q16.49-4.73 17.19-3.60Q17.88-2.48 19.25-2.48L19.25-2.48Q20.55-2.48 21.25-3.58Q21.95-4.69 21.96-6.76L21.96-6.76ZM31.89 0L27.22 0L27.22-14.22L31.80-14.22Q33.68-14.22 35.19-13.36Q36.69-12.51 37.53-10.95Q38.38-9.39 38.39-7.46L38.39-7.46L38.39-6.81Q38.39-4.85 37.56-3.31Q36.74-1.76 35.24-0.88Q33.74-0.01 31.89 0L31.89 0ZM31.80-11.57L30.64-11.57L30.64-2.64L31.84-2.64Q33.31-2.64 34.10-3.69Q34.89-4.74 34.89-6.81L34.89-6.81L34.89-7.42Q34.89-9.48 34.10-10.53Q33.31-11.57 31.80-11.57L31.80-11.57ZM52.19-7.47L52.19-6.82Q52.19-4.74 51.42-3.13Q50.64-1.53 49.22-0.67Q47.80 0.20 45.99 0.20Q44.17 0.20 42.76-0.64Q41.36-1.47 40.57-3.03Q39.79-4.58 39.75-6.59L39.75-6.59L39.75-7.39Q39.75-9.48 40.51-11.08Q41.28-12.68 42.71-13.54Q44.14-14.41 45.97-14.41L45.97-14.41Q47.77-14.41 49.19-13.55Q50.61-12.70 51.39-11.11Q52.18-9.52 52.19-7.47L52.19-7.47ZM48.70-6.76L48.70-7.41Q48.70-9.53 47.99-10.63Q47.29-11.73 45.97-11.73L45.97-11.73Q43.39-11.73 43.24-7.86L43.24-7.86L43.23-6.82Q43.23-4.73 43.93-3.60Q44.62-2.48 45.99-2.48L45.99-2.48Q47.29-2.48 47.99-3.58Q48.69-4.69 48.70-6.76L48.70-6.76Z"></path></g></g></svg><style>@media (prefers-color-scheme: light) { :root { filter: none; } }
@media (prefers-color-scheme: dark) { :root { filter: none; } }
</style></svg>